#!OML:ASF C:\Vicon Data\Big\jianyuan-13\jianyuan\Session 1\Capture.male.ASF
:FULLY-SPECIFIED
:DEGREES
251
root -9.434207 17.408230 -8.041009 9.193526 2.080444 4.237325
lowerback -12.424638 -2.926543 -6.344273 
upperback 2.633314 -2.861735 -0.293162 
thorax 10.168116 -1.739539 2.652381 
lowerneck -3.122871 -1.712252 2.397957 
upperneck 24.195965 -2.162303 -2.152794 
head 7.906144 -1.002660 -1.285062 
rclavicle 0.000000 0.000000 
rhumerus -43.398778 -23.109818 -73.556835 
rradius 27.100518 
rwrist 34.829910 
rhand -17.615651 -16.587376 
rfingers 0.000000 
rthumb 8.641270 -46.390529 
lclavicle 0.000000 0.000000 
lhumerus -9.684944 0.246560 100.249743 
lradius 42.243155 
lwrist -30.265784 
lhand -20.923423 3.073307 
lfingers 0.000000 
lthumb 5.448260 32.983261 
rfemur -34.507316 6.297617 16.832662 
rtibia 22.703290 
rfoot -7.114111 -6.119553 
rtoes -37.447835 
lfemur 1.369755 -4.771303 -28.943686 
ltibia 11.670965 
lfoot -6.809148 -11.006242 
ltoes -18.064865 
252
root -9.440545 17.406388 -7.967594 9.224747 2.151048 4.208160
lowerback -12.474553 -2.932461 -6.270160 
upperback 2.602754 -2.878981 -0.291866 
thorax 10.160532 -1.742465 2.607324 
lowerneck -3.136747 -1.708133 2.477973 
upperneck 24.166669 -2.150972 -2.220681 
head 7.897042 -0.996531 -1.320082 
rclavicle 0.000000 0.000000 
rhumerus -43.499652 -23.017589 -73.615201 
rradius 27.140364 
rwrist 34.606233 
rhand -17.605252 -16.641999 
rfingers 0.000000 
rthumb 8.651323 -46.444698 
lclavicle 0.000000 0.000000 
lhumerus -9.731454 0.068999 100.258016 
lradius 42.260512 
lwrist -30.219525 
lhand -20.935550 3.054390 
lfingers 0.000000 
lthumb 5.436590 32.964647 
rfemur -34.260958 6.452037 16.945821 
rtibia 22.736509 
rfoot -6.961506 -5.930219 
rtoes -37.279236 
lfemur 1.637916 -4.755201 -28.865281 
ltibia 11.593825 
lfoot -6.662632 -11.070617 
ltoes -18.232987 
253
root -9.447571 17.404393 -7.893976 9.310887 2.231301 4.237446
lowerback -12.579169 -2.953723 -6.278960 
upperback 2.558890 -2.900187 -0.283901 
thorax 10.176149 -1.752543 2.613242 
lowerneck -3.144894 -1.723257 2.444231 
upperneck 24.156868 -2.175905 -2.185746 
head 7.895521 -1.008154 -1.304551 
rclavicle 0.000000 0.000000 
rhumerus -43.602129 -22.857548 -73.730015 
rradius 27.261508 
rwrist 34.236131 
rhand -17.672514 -16.695602 
rfingers 0.000000 
rthumb 8.586385 -46.500968 
lclavicle 0.000000 0.000000 
lhumerus -9.732797 0.021479 100.327125 
lradius 42.232848 
lwrist -30.217084 
lhand -20.898270 3.054150 
lfingers 0.000000 
lthumb 5.472546 32.963480 
rfemur -34.048715 6.691129 16.923086 
rtibia 22.749872 
rfoot -6.692559 -5.764506 
rtoes -35.968852 
lfemur 1.817380 -4.735563 -28.837493 
ltibia 11.570875 
lfoot -6.401278 -11.138727 
ltoes -17.757682 
254
root -9.452099 17.403796 -7.820486 9.378207 2.336517 4.246136
lowerback -12.673893 -2.993076 -6.240043 
upperback 2.519968 -2.955594 -0.259886 
thorax 10.192810 -1.776892 2.602322 
lowerneck -3.136143 -1.698128 2.439943 
upperneck 24.136739 -2.126024 -2.250309 
head 7.887411 -0.990666 -1.321127 
rclavicle 0.000000 0.000000 
rhumerus -43.691699 -22.717309 -73.761423 
rradius 27.348768 
rwrist 34.075946 
rhand -17.687386 -16.694414 
rfingers 0.000000 
rthumb 8.572023 -46.500395 
lclavicle 0.000000 0.000000 
lhumerus -9.733372 0.059567 100.359673 
lradius 42.187009 
lwrist -30.346335 
lhand -20.740289 2.959664 
lfingers 0.000000 
lthumb 5.625101 32.865020 
rfemur -33.797430 6.869393 16.925853 
rtibia 22.761955 
rfoot -6.314615 -5.714456 
rtoes -33.871094 
lfemur 2.002253 -4.767106 -28.791832 
ltibia 11.575346 
lfoot -6.234652 -11.153978 
ltoes -17.580904 
255
root -9.457251 17.402872 -7.747164 9.458862 2.416290 4.241038
lowerback -12.770800 -2.994316 -6.171013 
upperback 2.484941 -2.961688 -0.267480 
thorax 10.206295 -1.774703 2.551093 
lowerneck -3.188056 -1.730062 2.456644 
upperneck 24.150983 -2.176606 -2.235332 
head 7.900340 -1.011775 -1.323567 
rclavicle 0.000000 0.000000 
rhumerus -43.832116 -22.864157 -73.754161 
rradius 27.359369 
rwrist 34.315091 
rhand -17.691895 -16.660713 
rfingers 0.000000 
rthumb 8.567652 -46.466877 
lclavicle 0.000000 0.000000 
lhumerus -9.756428 -0.051653 100.372486 
lradius 42.094491 
lwrist -30.544336 
lhand -20.813674 2.961568 
lfingers 0.000000 
lthumb 5.554239 32.868762 
rfemur -33.602734 7.154367 16.888244 
rtibia 22.805155 
rfoot -6.125153 -5.721606 
rtoes -32.405983 
lfemur 2.199793 -4.808511 -28.734295 
ltibia 11.529252 
lfoot -6.044316 -11.168207 
ltoes -17.569317 
256
root -9.463362 17.402240 -7.672445 9.575426 2.500819 4.272222
lowerback -12.898561 -3.008173 -6.155268 
upperback 2.427468 -2.974093 -0.276667 
thorax 10.216714 -1.778003 2.525972 
lowerneck -3.207842 -1.757813 2.453024 
upperneck 24.158114 -2.228737 -2.173384 
head 7.906092 -1.031149 -1.306623 
rclavicle 0.000000 0.000000 
rhumerus -43.967701 -22.993898 -73.723847 
rradius 27.346719 
rwrist 34.438662 
rhand -17.670422 -16.598834 
rfingers 0.000000 
rthumb 8.588376 -46.404174 
lclavicle 0.000000 0.000000 
lhumerus -9.848772 -0.180472 100.391134 
lradius 42.080488 
lwrist -30.479028 
lhand -20.722842 2.950234 
lfingers 0.000000 
lthumb 5.641962 32.855151 
rfemur -33.462864 7.404234 16.814748 
rtibia 22.848269 
rfoot -5.990815 -5.758426 
rtoes -31.320908 
lfemur 2.377668 -4.844338 -28.709273 
ltibia 11.455302 
lfoot -5.773102 -11.189461 
ltoes -17.303760 
257
root -9.469760 17.403153 -7.597560 9.606911 2.582513 4.255470
lowerback -12.969703 -3.024682 -6.084116 
upperback 2.397485 -3.005374 -0.259492 
thorax 10.224434 -1.788725 2.495539 
lowerneck -3.132257 -1.755601 2.442553 
upperneck 24.074761 -2.214165 -2.211371 
head 7.864259 -1.028842 -1.314167 
rclavicle 0.000000 0.000000 
rhumerus -44.046949 -22.512813 -73.875896 
rradius 27.506008 
rwrist 34.024603 
rhand -17.534142 -16.571194 
rfingers 0.000000 
rthumb 8.719895 -46.371052 
lclavicle 0.000000 0.000000 
lhumerus -9.962124 -0.237914 100.420383 
lradius 42.097490 
lwrist -30.487504 
lhand -20.719593 2.961549 
lfingers 0.000000 
lthumb 5.645077 32.866333 
rfemur -33.260265 7.543487 16.859786 
rtibia 22.876740 
rfoot -5.835155 -5.986043 
rtoes -30.719111 
lfemur 2.650089 -4.854528 -28.637536 
ltibia 11.358461 
lfoot -5.484827 -11.189383 
ltoes -17.086569 
258
root -9.477584 17.406796 -7.525792 9.651718 2.634230 4.166203
lowerback -13.049564 -3.040997 -5.980460 
upperback 2.376353 -3.045637 -0.196469 
thorax 10.248667 -1.804063 2.493826 
lowerneck -3.091365 -1.735454 2.367633 
upperneck 23.970952 -2.173043 -2.229499 
head 7.823602 -1.017988 -1.302410 
rclavicle 0.000000 0.000000 
rhumerus -44.078162 -22.287769 -73.981930 
rradius 27.619712 
rwrist 33.821506 
rhand -17.571129 -16.597540 
rfingers 0.000000 
rthumb 8.684199 -46.398951 
lclavicle 0.000000 0.000000 
lhumerus -10.001331 -0.147791 100.450377 
lradius 42.056949 
lwrist -30.686116 
lhand -20.723263 2.903137 
lfingers 0.000000 
lthumb 5.641549 32.808050 
rfemur -33.135212 7.721153 16.981054 
rtibia 22.891649 
rfoot -5.658819 -6.405851 
rtoes -30.587270 
lfemur 2.903728 -4.875985 -28.485431 
ltibia 11.235324 
lfoot -5.282702 -11.132340 
ltoes -17.680625 
259
root -9.482917 17.412160 -7.453025 9.744681 2.699023 4.102341
lowerback -13.180324 -3.046309 -5.887913 
upperback 2.340637 -3.065162 -0.144732 
thorax 10.284330 -1.809503 2.489124 
lowerneck -3.096747 -1.752563 2.354402 
upperneck 23.927862 -2.181929 -2.290743 
head 7.809007 -1.028933 -1.320466 
rclavicle 0.000000 0.000000 
rhumerus -44.166029 -22.307167 -73.943697 
rradius 27.666069 
rwrist 33.869871 
rhand -17.584144 -16.669628 
rfingers 0.000000 
rthumb 8.671698 -46.471519 
lclavicle 0.000000 0.000000 
lhumerus -10.052929 -0.160818 100.510984 
lradius 42.001884 
lwrist -30.590781 
lhand -20.690761 2.866035 
lfingers 0.000000 
lthumb 5.672954 32.770069 
rfemur -33.065136 7.915193 17.030185 
rtibia 22.882901 
rfoot -5.526430 -6.908948 
rtoes -30.222996 
lfemur 3.095932 -4.926206 -28.367563 
ltibia 11.135798 
lfoot -5.059827 -11.056210 
ltoes -18.143959 
